<svg width="423" height="242" viewBox="0 0 423 242" fill="none" xmlns="http://www.w3.org/2000/svg">
<path d="M181.545 42H377L272.455 146.545H77L181.545 42Z" fill="#FFD200"/>
<path d="M348.933 140.218C345.967 140.218 343.563 137.814 343.563 134.848V126.794H346.248V134.848C346.248 136.331 347.451 137.533 348.933 137.533C350.416 137.533 351.618 136.331 351.618 134.848V126.794H354.303V134.848C354.303 137.814 351.899 140.218 348.933 140.218Z" fill="#0F0F0F"/>
<path d="M356.988 140.218C354.022 140.218 351.618 137.814 351.618 134.848V126.794H354.303V134.848C354.303 136.331 355.505 137.533 356.988 137.533C358.471 137.533 359.673 136.331 359.673 134.848V126.794H362.358V134.848C362.358 137.814 359.953 140.218 356.988 140.218Z" fill="#0F0F0F"/>
<path d="M371.903 140.218C368.937 140.218 366.534 137.814 366.534 134.848V126.794H369.219V134.848C369.219 136.331 370.421 137.533 371.903 137.533C373.386 137.533 374.588 136.331 374.588 134.848V126.794H377.273V134.848C377.273 137.814 374.869 140.218 371.903 140.218Z" fill="#0F0F0F"/>
<path d="M379.958 140.218C376.992 140.218 374.588 137.814 374.588 134.848V126.794H377.273V134.848C377.273 136.331 378.475 137.533 379.958 137.533C381.441 137.533 382.643 136.331 382.643 134.848V126.794H385.328V134.848C385.328 137.814 382.924 140.218 379.958 140.218Z" fill="#0F0F0F"/>
<path d="M394.873 140.218C391.907 140.218 389.504 137.814 389.504 134.848V126.794H392.189V134.848C392.189 136.331 393.391 137.533 394.873 137.533C396.356 137.533 397.558 136.331 397.558 134.848V126.794H400.243V134.848C400.243 137.814 397.839 140.218 394.873 140.218Z" fill="#0F0F0F"/>
<path d="M402.928 140.218C399.962 140.218 397.558 137.814 397.558 134.848V126.794H400.243V134.848C400.243 136.331 401.445 137.533 402.928 137.533C404.411 137.533 405.613 136.331 405.613 134.848V126.794H408.298V134.848C408.298 137.814 405.894 140.218 402.928 140.218Z" fill="#0F0F0F"/>
<path d="M342.37 161.697H370.561V164.382H342.37V161.697Z" fill="#0F0F0F"/>
<path d="M342.37 113.369H345.055V116.054H342.37V113.369Z" fill="#0F0F0F"/>
<path d="M353.109 113.369H355.794V116.054H353.109V113.369Z" fill="#0F0F0F"/>
<path d="M347.74 113.369H350.424V116.054H347.74V113.369Z" fill="#0F0F0F"/>
<path d="M361.164 113.369H409.492V116.054H361.164V113.369Z" fill="#0F0F0F"/>
<path d="M414.861 151.944V108H337V171.094H374.487C375.074 181.986 382.889 191.133 393.557 193.412C404.224 195.69 415.094 190.534 420.079 180.831C425.064 171.129 422.925 159.29 414.861 151.944ZM419.994 168.409H412.557C412.477 165.232 412.009 162.077 411.167 159.012H417.157C418.821 161.881 419.793 165.099 419.994 168.409ZM415.324 156.327H410.294C409.436 153.977 408.192 151.786 406.613 149.845C410.022 151.228 413.021 153.46 415.324 156.327ZM399.927 168.409V159.012H408.333C409.264 162.062 409.785 165.222 409.88 168.409H399.927ZM409.872 171.094C409.78 174.281 409.262 177.441 408.333 180.491H399.927V171.094H409.872ZM399.927 156.327V148.447C402.88 149.144 405.521 152.086 407.345 156.327H399.927ZM339.685 110.685H412.176V118.739H339.685V110.685ZM377.172 171.094H384.609C384.691 174.271 385.157 177.427 386 180.491H380.008C378.344 177.622 377.373 174.404 377.172 171.094ZM386 159.012C385.157 162.077 384.691 165.232 384.609 168.409H377.172C377.373 165.099 378.344 161.881 380.008 159.012H386ZM381.839 156.327C384.143 153.46 387.141 151.228 390.549 149.845C388.972 151.786 387.73 153.977 386.873 156.327H381.839ZM381.839 183.176H386.869C387.727 185.527 388.971 187.717 390.549 189.659C387.142 188.275 384.145 186.043 381.843 183.176H381.839ZM397.238 191.056C394.284 190.36 391.643 187.417 389.818 183.176H397.238V191.056ZM397.238 180.491H388.841C387.909 177.442 387.389 174.281 387.294 171.094H397.242L397.238 180.491ZM397.238 168.409H387.29C387.385 165.222 387.905 162.062 388.837 159.012H397.238V168.409ZM397.238 156.327H389.822C391.647 152.086 394.288 149.144 397.242 148.447L397.238 156.327ZM374.483 168.409H339.685V121.424H412.176V149.788C404.983 144.877 395.699 144.225 387.889 148.083C380.08 151.942 374.957 159.711 374.487 168.409H374.483ZM399.923 191.056V183.176H407.341C405.521 187.417 402.878 190.36 399.927 191.056H399.923ZM406.609 189.659C408.189 187.718 409.435 185.527 410.294 183.176H415.324C413.021 186.044 410.022 188.276 406.613 189.659H406.609ZM417.157 180.491H411.167C412.009 177.427 412.477 174.271 412.557 171.094H419.994C419.793 174.404 418.821 177.622 417.157 180.491Z" fill="#0F0F0F"/>
<path d="M315 176H319.812C322.206 176 324.147 177.941 324.147 180.335V186.212C324.147 188.606 322.206 190.547 319.812 190.547H315V188.169H319.812C320.893 188.169 321.769 187.293 321.769 186.212V180.335C321.769 179.254 320.893 178.378 319.812 178.378H315V176Z" fill="#0F0F0F"/>
<path d="M91.378 90.604C91.378 88.565 93.031 86.912 95.07 86.912H212.532C214.571 86.912 216.224 88.565 216.224 90.604V129.198H218.602V90.604C218.602 87.252 215.885 84.533 212.532 84.533H95.07C91.718 84.533 89 87.252 89 90.604V177.452C89 180.805 91.717 183.523 95.07 183.523H129.567V181.145H95.07C93.031 181.145 91.378 179.492 91.378 177.452V90.604Z" fill="#0F0F0F"/>
<path d="M99.2209 99.014C99.2209 97.011 100.844 95.387 102.847 95.387H204.757C206.76 95.387 208.383 97.011 208.383 99.014V129.198H210.762V99.014C210.762 95.698 208.074 93.009 204.757 93.009H102.847C99.5299 93.009 96.8419 95.698 96.8419 99.014V169.042C96.8419 172.359 99.5299 175.048 102.847 175.048H129.567V172.669H102.847C100.844 172.669 99.2209 171.046 99.2209 169.042V99.014Z" fill="#0F0F0F"/>
<path d="M237.459 56.922C238.447 55.934 239.788 55.378 241.185 55.378H301.352C302.044 55.378 302.729 55.515 303.368 55.78C304.008 56.044 304.589 56.433 305.078 56.922C305.567 57.412 305.956 57.993 306.221 58.632C306.485 59.272 306.622 59.957 306.622 60.649V195.961C306.622 196.653 306.485 197.338 306.221 197.978C305.956 198.617 305.567 199.198 305.078 199.688C304.589 200.177 304.008 200.565 303.368 200.83C302.729 201.095 302.044 201.232 301.352 201.232H277.023V203.61H301.352C302.356 203.61 303.351 203.412 304.279 203.028C305.207 202.643 306.05 202.08 306.76 201.369C307.47 200.659 308.034 199.816 308.418 198.888C308.802 197.96 309 196.965 309 195.961V60.649C309 59.645 308.802 58.65 308.418 57.722C308.033 56.794 307.47 55.951 306.76 55.241C306.05 54.53 305.207 53.967 304.279 53.582C303.351 53.198 302.356 53 301.352 53H241.185C239.157 53 237.212 53.806 235.777 55.241C234.343 56.675 233.537 58.621 233.537 60.649V130.404H235.916V60.649C235.916 59.251 236.471 57.911 237.459 56.922Z" fill="#0F0F0F"/>
<path fill-rule="evenodd" clip-rule="evenodd" d="M244.245 73.91C244.245 73.253 244.777 72.72 245.434 72.72H297.103C297.76 72.72 298.293 73.253 298.293 73.91V82.069C298.293 82.726 297.76 83.258 297.103 83.258H245.434C244.777 83.258 244.245 82.726 244.245 82.069V73.91ZM246.623 75.099V80.88H295.914V75.099H246.623Z" fill="#0F0F0F"/>
<path fill-rule="evenodd" clip-rule="evenodd" d="M244.245 98.154C244.245 97.497 244.777 96.965 245.434 96.965H297.103C297.76 96.965 298.293 97.497 298.293 98.154V106.314C298.293 106.97 297.76 107.503 297.103 107.503H245.434C244.777 107.503 244.245 106.97 244.245 106.314V98.154ZM246.623 99.343V105.125H295.914V99.343H246.623Z" fill="#0F0F0F"/>
<path fill-rule="evenodd" clip-rule="evenodd" d="M144.378 135.465H144.381H262.669C265.107 135.466 267.446 136.436 269.17 138.16C270.894 139.884 271.863 142.222 271.865 144.661V215.427C271.865 216.084 271.332 216.616 270.676 216.616H136.391C135.734 216.616 135.202 216.084 135.202 215.427V144.662C135.202 142.226 136.168 139.89 137.889 138.166C139.609 136.441 141.943 135.47 144.378 135.465ZM269.486 144.662C269.485 142.854 268.767 141.12 267.488 139.842C266.21 138.563 264.477 137.844 262.669 137.843H144.382C142.577 137.847 140.847 138.567 139.572 139.845C138.297 141.124 137.58 142.856 137.58 144.662C137.58 144.662 137.58 144.661 137.58 144.662V214.238H269.486V144.662Z" fill="#0F0F0F"/>
<path fill-rule="evenodd" clip-rule="evenodd" d="M147.156 146.127C146.959 146.127 146.763 146.166 146.581 146.241C146.399 146.317 146.233 146.427 146.094 146.567C145.955 146.706 145.844 146.872 145.768 147.054C145.693 147.236 145.654 147.431 145.654 147.629V205.7C145.654 206.098 145.812 206.48 146.094 206.762C146.376 207.043 146.757 207.201 147.156 207.201H259.903C260.301 207.201 260.683 207.043 260.965 206.762C261.246 206.48 261.404 206.098 261.404 205.7V147.629C261.404 147.23 261.246 146.848 260.965 146.567C260.683 146.285 260.301 146.127 259.903 146.127H147.156ZM145.671 144.044C146.142 143.849 146.646 143.749 147.156 143.749H259.903C260.932 143.749 261.919 144.157 262.646 144.885C263.374 145.613 263.783 146.6 263.783 147.629V205.7C263.783 206.728 263.374 207.715 262.646 208.443C261.919 209.171 260.932 209.58 259.903 209.58H147.156C146.127 209.58 145.14 209.171 144.412 208.443C143.685 207.716 143.276 206.729 143.276 205.7V147.629C143.276 147.119 143.376 146.615 143.571 146.144C143.766 145.673 144.052 145.245 144.412 144.885C144.772 144.525 145.2 144.239 145.671 144.044Z" fill="#0F0F0F"/>
<path fill-rule="evenodd" clip-rule="evenodd" d="M272.009 238.5H272.017C275.783 238.526 278.194 238.282 280.073 237.62C281.397 237.154 282.561 236.442 283.79 235.269L270.696 216.5H136.304L123.097 235.43C123.798 236.129 124.676 236.643 125.901 237.063C127.906 237.749 130.742 238.147 135.101 238.5H272.009ZM135 241C126.197 240.293 122.38 239.349 120 235.5L135 214H272L287 235.5C283.096 240.057 279.646 241.053 272 241H135Z" fill="#0F0F0F"/>
<path fill-rule="evenodd" clip-rule="evenodd" d="M139.462 224.363C139.462 223.706 139.995 223.174 140.651 223.174H266.586C267.242 223.174 267.775 223.706 267.775 224.363C267.775 225.02 267.242 225.552 266.586 225.552H140.651C139.995 225.552 139.462 225.02 139.462 224.363Z" fill="#0F0F0F"/>
<path fill-rule="evenodd" clip-rule="evenodd" d="M135 231.25C135 230.56 135.568 230 136.27 230H270.73C271.432 230 272 230.56 272 231.25C272 231.94 271.432 232.5 270.73 232.5H136.27C135.568 232.5 135 231.94 135 231.25Z" fill="#0F0F0F"/>
<path d="M203.393 181.157C202.391 181.157 201.413 180.824 200.58 180.202C199.747 179.582 199.098 178.696 198.714 177.663C198.332 176.628 198.231 175.489 198.428 174.392C198.622 173.293 199.105 172.285 199.814 171.494C200.521 170.702 201.423 170.163 202.407 169.947C203.388 169.728 204.407 169.841 205.331 170.269C206.256 170.697 207.047 171.423 207.604 172.354C208.159 173.287 208.456 174.38 208.456 175.5H212.785C212.785 173.423 212.233 171.394 211.202 169.666C210.17 167.939 208.704 166.594 206.987 165.799C205.271 165.005 203.383 164.797 201.56 165.201C199.738 165.606 198.065 166.607 196.751 168.075C195.437 169.544 194.543 171.415 194.18 173.451C193.818 175.488 194.005 177.599 194.716 179.518C195.427 181.436 196.629 183.076 198.175 184.23C199.719 185.385 201.535 186 203.393 186H242V181.157H203.393Z" fill="#0F0F0F"/>
<path d="M242 194V188.788H203.374C201.047 188.788 198.774 188.01 196.84 186.548C194.906 185.088 193.399 183.013 192.509 180.586C191.619 178.158 191.386 175.485 191.84 172.909C192.293 170.331 193.413 167.963 195.059 166.105C196.702 164.246 198.799 162.98 201.079 162.469C203.36 161.955 205.725 162.22 207.875 163.224C210.023 164.23 211.859 165.934 213.153 168.119C214.444 170.303 215.134 172.872 215.134 175.501H219.747C219.747 171.842 218.788 168.265 216.988 165.222C215.189 162.18 212.631 159.808 209.639 158.408C206.647 157.008 203.356 156.641 200.179 157.356C197.003 158.07 194.085 159.831 191.796 162.42C189.505 165.007 187.946 168.303 187.315 171.891C186.683 175.48 187.007 179.199 188.247 182.58C189.485 185.961 191.584 188.851 194.277 190.884C196.969 192.917 200.134 194 203.374 194H242Z" fill="#0F0F0F"/>
<path d="M172.732 194V169.086H168V164H177V194H172.732Z" fill="#0F0F0F"/>
<path d="M172 162.287H178.456V194H183V157H172V162.287Z" fill="#0F0F0F"/>
<path d="M368.9 184.527L369.052 182.426L366.426 182.236L366.274 184.337L368.9 184.527ZM363.649 184.147L363.8 182.045L361.174 181.856L361.023 183.957L363.649 184.147ZM358.397 183.766L358.548 181.665L355.922 181.475L355.771 183.576L358.397 183.766ZM353.145 183.386L353.296 181.285L350.67 181.095L350.519 183.196L353.145 183.386ZM347.892 183.006L348.044 180.905L345.418 180.715L345.266 182.816L347.892 183.006ZM342.64 182.626L342.792 180.524L340.166 180.334L340.014 182.436L342.64 182.626ZM337.388 182.246L337.54 180.144L334.914 179.954L334.762 182.055L337.388 182.246ZM332.136 181.865L332.288 179.764L329.662 179.573L329.51 181.675L332.136 181.865Z" fill="#0F0F0F" stroke="#0F0F0F" stroke-width="0.7"/>
<path d="M198.451 70.788L197.69 69.612C196.796 68.22 195.599 67.049 194.188 66.185L193 65.454L194.171 64.697C195.563 63.802 196.734 62.605 197.597 61.193L198.331 60L199.087 61.18C199.532 61.873 200.054 62.513 200.643 63.088C201.233 63.664 201.885 64.172 202.587 64.603L203.775 65.334L202.604 66.092C201.911 66.538 201.27 67.061 200.694 67.65C200.117 68.238 199.61 68.889 199.18 69.592L198.451 70.788ZM196.178 65.419C197.01 66.051 197.76 66.785 198.411 67.603C198.728 67.188 199.07 66.793 199.435 66.419C199.801 66.046 200.189 65.695 200.597 65.37C199.765 64.736 199.015 64.002 198.362 63.185C197.73 64.017 196.996 64.768 196.178 65.419Z" fill="#0F0F0F" stroke="#0F0F0F" stroke-width="0.7"/>
<path fill-rule="evenodd" clip-rule="evenodd" d="M123.436 107.704C116.968 107.704 111.704 112.968 111.704 119.436C111.704 125.904 116.968 131.169 123.436 131.169C129.904 131.169 135.169 125.904 135.169 119.436C135.169 112.968 129.904 107.704 123.436 107.704ZM109 119.436C109 111.475 115.475 105 123.436 105C131.398 105 137.873 111.475 137.873 119.436C137.873 127.398 131.398 133.873 123.436 133.873C115.475 133.873 109 127.398 109 119.436Z" fill="#0F0F0F"/>
<path d="M122.196 122.813L116.698 118.414L115.062 120.458L122.649 126.526L137.429 107.277L135.351 105.688L122.196 122.813Z" fill="#0F0F0F"/>
<path d="M288.458 120H285.705V127.333H288.458V120Z" fill="#0F0F0F"/>
<path d="M277.662 124.311L276.285 126.693L282.642 130.36L284.018 127.977L277.662 124.311Z" fill="#0F0F0F"/>
<path d="M282.356 132.143L276 135.81L277.377 138.192L283.732 134.526L282.356 132.143Z" fill="#0F0F0F"/>
<path d="M290.953 132.637L289.577 135.019L295.933 138.685L297.309 136.303L290.953 132.637Z" fill="#0F0F0F"/>
<path d="M296.218 124.804L289.862 128.471L291.238 130.853L297.594 127.187L296.218 124.804Z" fill="#0F0F0F"/>
<path d="M288.458 136.273H285.705V143.606H288.458V136.273Z" fill="#0F0F0F"/>
<path d="M331.62 97.042C329.737 97.062 327.891 96.523 326.315 95.4939C324.739 94.4646 323.503 92.9909 322.764 91.2591C322.025 89.5273 321.816 87.6153 322.163 85.7647C322.511 83.914 323.399 82.208 324.715 80.8622C326.032 79.5164 327.718 78.5912 329.56 78.2038C331.402 77.8163 333.318 77.9839 335.065 78.6854C336.811 79.3868 338.311 80.5906 339.374 82.1446C340.437 83.6986 341.016 85.533 341.037 87.4158C341.062 89.9408 340.084 92.3726 338.319 94.1774C336.553 95.9822 334.144 97.012 331.62 97.042ZM331.428 79.7605C329.894 79.7784 328.399 80.251 327.133 81.1184C325.867 81.9859 324.887 83.2093 324.316 84.634C323.745 86.0587 323.61 87.6207 323.926 89.1225C324.243 90.6244 324.998 91.9986 326.095 93.0714C327.192 94.1443 328.583 94.8677 330.091 95.1501C331.599 95.4325 333.157 95.2613 334.568 94.658C335.979 94.0548 337.18 93.0466 338.018 91.761C338.856 90.4754 339.294 88.9701 339.277 87.4353C339.252 85.3769 338.412 83.4126 336.94 81.9737C335.468 80.5347 333.486 79.7387 331.428 79.7605Z" fill="#0F0F0F" stroke="#0F0F0F" stroke-width="0.7"/>
<path d="M332.342 82.8706L330.583 82.8901L330.686 92.173L332.445 92.1535L332.342 82.8706Z" fill="#0F0F0F" stroke="#0F0F0F" stroke-width="0.7"/>
<path d="M336.149 86.5903L326.864 86.6934L326.884 88.4531L336.169 88.3501L336.149 86.5903Z" fill="#0F0F0F" stroke="#0F0F0F" stroke-width="0.7"/>
<path d="M44.4831 30.2092H28.3518V23H44.4831V30.2092ZM30.7959 27.7654H42.039V25.4438H30.7959V27.7654Z" fill="#0F0F0F"/>
<path d="M59.1918 43.3819L56.5205 46.3389L61.5992 50.9255L64.2704 47.9685L59.1918 43.3819Z" fill="#0F0F0F"/>
<path d="M60.2002 38.8797L57.4962 41.8713L65.9281 49.4907L68.6321 46.4991L60.2002 38.8797Z" fill="#0F0F0F"/>
<path fill-rule="evenodd" clip-rule="evenodd" d="M41.7947 41.5573V27.7654H31.0405V41.6736C31.8467 41.5412 32.6617 41.4361 33.4847 41.3594V30.2092H39.3505V41.2977C40.1734 41.3565 40.9884 41.4434 41.7947 41.5573Z" fill="#0F0F0F"/>
<path d="M36.7842 113.543C16.4979 113.543 0 97.0474 0 76.7638C0 56.4802 16.4979 39.9845 36.7842 39.9845C57.0704 39.9845 73.5683 56.4802 73.5683 76.7638C73.6905 97.0474 57.0704 113.543 36.7842 113.543ZM36.7842 42.3061C17.8422 42.3061 2.44413 57.7021 2.44413 76.6416C2.44413 95.5811 17.8422 110.977 36.7842 110.977C55.7262 110.977 71.1242 95.5811 71.1242 76.6416C71.2464 57.8243 55.7262 42.3061 36.7842 42.3061Z" fill="#0F0F0F"/>
<path d="M36.7841 107.678C19.6752 107.678 5.74365 93.7483 5.74365 76.6416C5.74365 59.5349 19.6752 45.6052 36.7841 45.6052C53.8931 45.6052 67.8246 59.5349 67.8246 76.6416C67.8246 93.8705 53.8931 107.678 36.7841 107.678ZM36.7841 48.1712C21.0195 48.1712 8.18778 61.0012 8.18778 76.7638C8.18778 92.5264 21.0195 105.356 36.7841 105.356C52.5488 105.356 65.3805 92.5264 65.3805 76.7638C65.3805 61.0012 52.5488 48.1712 36.7841 48.1712Z" fill="#0F0F0F"/>
<path d="M62.9363 75.5419C62.9363 76.1528 62.4475 76.7638 61.7142 76.7638C61.1032 76.7638 60.4922 76.275 60.4922 75.5419C60.4922 74.9309 60.981 74.32 61.7142 74.32C62.4475 74.32 62.9363 74.9309 62.9363 75.5419Z" fill="#0F0F0F"/>
<path d="M61.5921 70.5321C61.5921 71.143 61.1033 71.754 60.37 71.754C59.6368 71.754 59.1479 71.2652 59.1479 70.5321C59.1479 69.9211 59.6368 69.3102 60.37 69.3102C61.1033 69.4324 61.5921 69.9211 61.5921 70.5321Z" fill="#0F0F0F"/>
<path d="M60.2478 65.6445C60.2478 66.2554 59.759 66.8664 59.0258 66.8664C58.2925 66.8664 57.8037 66.3776 57.8037 65.6445C57.8037 65.0335 58.2925 64.4226 59.0258 64.4226C59.759 64.4226 60.2478 64.9113 60.2478 65.6445Z" fill="#0F0F0F"/>
<path d="M57.3149 61.49C57.3149 62.2231 56.826 62.7119 56.0928 62.7119C55.4818 62.7119 54.8707 62.2231 54.8707 61.49C54.8707 60.879 55.3596 60.2681 56.0928 60.2681C56.826 60.2681 57.3149 60.879 57.3149 61.49Z" fill="#0F0F0F"/>
<path d="M53.6487 57.8243C53.6487 58.5574 53.1599 59.0462 52.4267 59.0462C51.6934 59.0462 51.2046 58.5574 51.2046 57.8243C51.2046 57.2133 51.6934 56.6024 52.4267 56.6024C53.1599 56.6024 53.6487 57.2133 53.6487 57.8243Z" fill="#0F0F0F"/>
<path d="M49.738 54.6473C49.738 55.2583 49.2492 55.8692 48.516 55.8692C47.905 55.8692 47.2939 55.3805 47.2939 54.6473C47.2939 54.0364 47.7828 53.4254 48.516 53.4254C49.2492 53.4254 49.738 54.0364 49.738 54.6473Z" fill="#0F0F0F"/>
<path d="M44.7275 53.3032C44.7275 53.9142 44.2387 54.5251 43.5055 54.5251C42.7723 54.5251 42.2834 54.0364 42.2834 53.3032C42.2834 52.5701 42.7723 52.0813 43.5055 52.0813C44.2387 52.0813 44.7275 52.6923 44.7275 53.3032Z" fill="#0F0F0F"/>
<path d="M39.7171 51.9591C39.7171 52.5701 39.2282 53.181 38.495 53.181C37.884 53.181 37.2729 52.6923 37.2729 51.9591C37.2729 51.3482 37.7618 50.7372 38.495 50.7372C39.2282 50.7372 39.7171 51.3482 39.7171 51.9591Z" fill="#0F0F0F"/>
<path d="M34.8289 52.4479C34.8289 53.0589 34.3401 53.6698 33.6068 53.6698C32.9958 53.6698 32.3848 53.181 32.3848 52.4479C32.3848 51.837 32.8736 51.226 33.6068 51.226C34.2179 51.226 34.8289 51.837 34.8289 52.4479Z" fill="#0F0F0F"/>
<path d="M29.8184 53.792C29.8184 54.4029 29.3295 55.0139 28.5963 55.0139C27.8631 55.0139 27.3743 54.5251 27.3743 53.792C27.3743 53.181 27.8631 52.5701 28.5963 52.5701C29.2073 52.5701 29.8184 53.181 29.8184 53.792Z" fill="#0F0F0F"/>
<path d="M24.9302 55.3805C24.9302 55.9914 24.4414 56.6024 23.7081 56.6024C22.9749 56.6024 22.4861 56.1136 22.4861 55.3805C22.4861 54.7695 22.9749 54.1586 23.7081 54.1586C24.4414 54.2808 24.9302 54.7695 24.9302 55.3805Z" fill="#0F0F0F"/>
<path d="M21.2639 59.0462C21.2639 59.7793 20.7751 60.2681 20.0419 60.2681C19.4309 60.2681 18.8198 59.7793 18.8198 59.0462C18.8198 58.4352 19.3086 57.8243 20.0419 57.8243C20.7751 57.8243 21.2639 58.4352 21.2639 59.0462Z" fill="#0F0F0F"/>
<path d="M17.5977 62.7119C17.5977 63.3228 17.1089 63.9338 16.3756 63.9338C15.6424 63.9338 15.1536 63.445 15.1536 62.7119C15.1536 62.1009 15.6424 61.49 16.3756 61.49C17.1089 61.49 17.5977 62.1009 17.5977 62.7119Z" fill="#0F0F0F"/>
<path d="M15.5202 67.2329C15.5202 67.8439 15.0314 68.4548 14.2981 68.4548C13.6871 68.4548 13.076 67.9661 13.076 67.2329C13.076 66.622 13.5649 66.011 14.2981 66.011C14.9092 66.1332 15.5202 66.622 15.5202 67.2329Z" fill="#0F0F0F"/>
<path d="M14.1759 72.2427C14.1759 72.8537 13.6871 73.4647 12.9539 73.4647C12.2206 73.4647 11.7318 72.9759 11.7318 72.2427C11.7318 71.5096 12.2206 71.0208 12.9539 71.0208C13.6871 71.0208 14.1759 71.6318 14.1759 72.2427Z" fill="#0F0F0F"/>
<path d="M13.0761 77.2526C13.0761 77.8635 12.5873 78.4745 11.854 78.4745C11.243 78.4745 10.632 77.9857 10.632 77.2526C10.632 76.6416 11.1208 76.0307 11.854 76.0307C12.5873 76.0307 13.0761 76.6416 13.0761 77.2526Z" fill="#0F0F0F"/>
<path d="M14.4204 82.2624C14.4204 82.8733 13.9316 83.4843 13.1984 83.4843C12.5873 83.4843 11.9763 82.9955 11.9763 82.2624C11.9763 81.5292 12.4651 81.0405 13.1984 81.0405C13.9316 81.0405 14.4204 81.6514 14.4204 82.2624Z" fill="#0F0F0F"/>
<path d="M15.7647 87.2722C15.7647 87.8831 15.2759 88.4941 14.5426 88.4941C13.9316 88.4941 13.3206 88.0053 13.3206 87.2722C13.3206 86.6612 13.8094 86.0503 14.5426 86.0503C15.2759 86.0503 15.7647 86.539 15.7647 87.2722Z" fill="#0F0F0F"/>
<path d="M18.4532 91.5488C18.4532 92.1598 17.9643 92.7707 17.2311 92.7707C16.6201 92.7707 16.009 92.282 16.009 91.5488C16.009 90.9379 16.4979 90.3269 17.2311 90.3269C17.9643 90.3269 18.4532 90.8157 18.4532 91.5488Z" fill="#0F0F0F"/>
<path d="M22.1194 95.2146C22.1194 95.8255 21.6306 96.4365 20.8973 96.4365C20.2863 96.4365 19.6753 95.9477 19.6753 95.2146C19.6753 94.4814 20.1641 93.9926 20.8973 93.9926C21.6306 93.9926 22.1194 94.4814 22.1194 95.2146Z" fill="#0F0F0F"/>
<path d="M25.9077 98.6359C25.9077 99.369 25.4189 99.8578 24.6857 99.8578C24.0747 99.8578 23.4636 99.369 23.4636 98.6359C23.4636 98.0249 23.9524 97.414 24.6857 97.414C25.4189 97.414 25.9077 97.9027 25.9077 98.6359Z" fill="#0F0F0F"/>
<path d="M30.9182 99.98C30.9182 100.591 30.4294 101.202 29.6962 101.202C28.9629 101.202 28.4741 100.713 28.4741 99.98C28.4741 99.369 28.9629 98.7581 29.6962 98.7581C30.3072 98.7581 30.9182 99.2468 30.9182 99.98Z" fill="#0F0F0F"/>
<path d="M35.9288 101.324C35.9288 101.935 35.4399 102.546 34.7067 102.546C34.0957 102.546 33.4846 102.057 33.4846 101.324C33.4846 100.713 33.9734 100.102 34.7067 100.102C35.3177 100.102 35.9288 100.591 35.9288 101.324Z" fill="#0F0F0F"/>
<path d="M40.9392 101.08C40.9392 101.813 40.4504 102.302 39.7172 102.302C39.1061 102.302 38.4951 101.813 38.4951 101.08C38.4951 100.469 38.9839 99.8578 39.7172 99.8578C40.3282 99.8578 40.9392 100.469 40.9392 101.08Z" fill="#0F0F0F"/>
<path d="M45.9496 99.7356C45.9496 100.347 45.4608 100.957 44.7276 100.957C43.9943 100.957 43.5055 100.469 43.5055 99.7356C43.5055 99.1246 43.9943 98.5137 44.7276 98.5137C45.3386 98.5137 45.9496 99.1246 45.9496 99.7356Z" fill="#0F0F0F"/>
<path d="M50.8379 98.3915C50.8379 99.0025 50.3491 99.6134 49.6158 99.6134C49.0048 99.6134 48.3938 99.1246 48.3938 98.3915C48.3938 97.7806 48.8826 97.1696 49.6158 97.1696C50.3491 97.1696 50.8379 97.7806 50.8379 98.3915Z" fill="#0F0F0F"/>
<path d="M54.5042 94.7258C54.5042 95.3367 54.0153 95.9477 53.2821 95.9477C52.6711 95.9477 52.0601 95.4589 52.0601 94.7258C52.0601 94.1148 52.5489 93.5039 53.2821 93.5039C54.0153 93.5039 54.5042 94.1148 54.5042 94.7258Z" fill="#0F0F0F"/>
<path d="M58.1703 91.0601C58.1703 91.671 57.6815 92.282 56.9482 92.282C56.3372 92.282 55.7262 91.7932 55.7262 91.0601C55.7262 90.3269 56.215 89.8382 56.9482 89.8382C57.6815 89.8382 58.1703 90.4491 58.1703 91.0601Z" fill="#0F0F0F"/>
<path d="M60.6144 86.6612C60.6144 87.2722 60.1256 87.8831 59.3924 87.8831C58.7813 87.8831 58.1703 87.3944 58.1703 86.6612C58.1703 86.0503 58.6591 85.4393 59.3924 85.4393C60.0034 85.4393 60.6144 86.0503 60.6144 86.6612Z" fill="#0F0F0F"/>
<path d="M61.9586 81.6514C61.9586 82.2624 61.4698 82.8733 60.7366 82.8733C60.1255 82.8733 59.5145 82.3846 59.5145 81.6514C59.5145 81.0405 60.0033 80.4295 60.7366 80.4295C61.3476 80.5517 61.9586 81.0405 61.9586 81.6514Z" fill="#0F0F0F"/>
<path d="M39.8394 76.886C39.8394 75.5419 38.8617 74.32 37.6396 73.9534L36.662 61.2456L35.6843 74.0756C34.5844 74.5644 33.8512 75.5419 33.8512 76.886C33.8512 78.2301 34.7067 79.3298 35.9287 79.6964V83.6065C35.9287 84.0952 36.2954 84.4618 36.7842 84.4618H36.9064C37.3952 84.4618 37.7618 84.0952 37.7618 83.6065V79.6964C38.9839 79.3298 39.8394 78.2301 39.8394 76.886Z" fill="#0F0F0F"/>
<path d="M36.7841 80.7961C34.7066 80.7961 32.9957 79.0854 32.9957 77.0082C32.9957 74.9309 34.7066 73.2203 36.7841 73.2203C38.8616 73.2203 40.5725 74.9309 40.5725 77.0082C40.5725 79.2076 38.8616 80.7961 36.7841 80.7961ZM36.7841 74.6866C35.4399 74.6866 34.4622 75.7863 34.4622 77.0082C34.4622 78.3523 35.5621 79.3298 36.7841 79.3298C38.1284 79.3298 39.1061 78.2301 39.1061 77.0082C39.1061 75.7863 38.0062 74.6866 36.7841 74.6866Z" fill="#0F0F0F"/>
<path d="M40.6147 184.226L23.1392 168.097L23.9946 167.242C29.4939 161.377 37.6817 158.811 45.5029 160.521C49.2913 161.377 52.9576 163.332 55.7683 165.898L56.6237 166.753L40.6147 184.226ZM26.6831 167.975L40.4925 180.805L53.3242 166.997C50.88 165.042 48.0693 163.698 45.0141 162.965C38.415 161.377 31.4492 163.332 26.6831 167.975Z" fill="#0F0F0F"/>
<path d="M65.7892 194.368L38.4149 182.882L58.579 161.132L59.4344 161.988C62.9784 165.287 65.667 169.563 67.1335 174.207C69.0888 180.438 68.7221 187.281 66.1558 193.268L65.7892 194.368ZM42.5699 182.027L64.4449 191.191C66.4002 185.937 66.5224 180.194 64.8115 174.94C63.5895 171.03 61.512 167.486 58.7012 164.676L42.5699 182.027Z" fill="#0F0F0F"/>
<path d="M40.4925 204.999C38.7816 204.999 37.1929 204.876 35.482 204.388C27.6608 202.555 21.306 196.69 18.9841 189.114C16.6622 181.416 18.4953 172.985 23.9946 167.12C24.239 166.875 24.4834 166.753 24.85 166.753C25.2166 166.753 25.461 166.875 25.7055 167.12L41.2257 181.416L60.6565 189.603C60.901 189.725 61.1454 189.969 61.2676 190.214C61.3898 190.458 61.3898 190.825 61.2676 191.191C60.2899 193.635 58.8235 195.834 56.9904 197.789C52.7131 202.433 46.725 204.999 40.4925 204.999ZM24.9722 169.808C20.695 174.94 19.3507 182.027 21.306 188.503C23.3835 195.346 29.1272 200.6 36.093 202.188C43.0588 203.777 50.3912 201.455 55.2794 196.201C56.6237 194.735 57.7236 193.146 58.579 191.435L40.1258 183.615C40.0036 183.615 39.8814 183.493 39.7592 183.371L24.9722 169.808Z" fill="#0F0F0F"/>
<path d="M372.237 57.6949L365.339 50.8786C353.973 59.4319 338.209 58.3322 328.188 48.0682C322.933 42.6919 320 35.6048 320 28.029C320 20.4532 323.055 13.3662 328.432 8.11197C339.553 -2.88517 357.517 -2.64079 368.516 8.47854C378.17 18.2538 379.27 33.772 371.327 44.8913L378.347 51.8298L372.237 57.6949ZM365.583 47.7017L372.237 54.2736L374.925 51.7076L368.149 45.0135L368.76 44.1581C376.704 34.0163 375.848 19.3535 366.805 10.1892C356.784 0.0473948 340.409 -0.0747948 330.143 9.94482C325.255 14.8324 322.444 21.3085 322.444 28.1512C322.444 35.1161 325.01 41.5921 329.899 46.4798C339.186 55.8884 354.462 56.7438 364.728 48.4348L365.583 47.7017ZM348.352 51.3674C348.23 51.3674 348.108 51.3674 347.985 51.3674C341.875 51.2452 336.131 48.8014 331.854 44.5247C322.933 35.4826 323.055 20.8198 332.098 11.8999C341.142 2.97997 355.807 3.10216 364.728 12.1442C373.649 21.1863 373.527 35.8492 364.483 44.7691C360.206 49.0458 354.462 51.3674 348.352 51.3674ZM347.985 48.9236C353.485 49.0458 358.862 46.8463 362.772 43.0584C370.838 35.1161 370.96 22.0417 363.017 13.8549C355.073 5.79035 341.997 5.66816 333.809 13.6105C325.744 21.5529 325.622 34.7495 333.565 42.814C337.476 46.7241 342.608 48.8014 347.985 48.9236Z" fill="#0F0F0F"/>
<path d="M395.768 88.3911L373.771 66.3968L371.082 69.085L364.483 62.4867L382.448 44.5247L389.047 51.123L386.358 53.8112L408.355 75.8055L395.768 88.3911ZM373.771 62.8533L395.768 84.8476L404.934 75.6833L382.936 53.689L385.625 51.0008L382.448 47.8239L367.905 62.3645L371.082 65.5415L373.771 62.8533Z" fill="#0F0F0F"/>
<path d="M337.231 27.4181H334.298V37.8042H337.231V27.4181Z" fill="#0F0F0F"/>
<path d="M344.686 21.4307H341.753V37.8042H344.686V21.4307Z" fill="#0F0F0F"/>
<path d="M352.14 18.4982H349.208V37.8043H352.14V18.4982Z" fill="#0F0F0F"/>
<path d="M359.595 13.9771H356.662V37.8043H359.595V13.9771Z" fill="#0F0F0F"/>
<path d="M348.474 68.3519C347.863 68.3519 347.252 68.3519 346.519 68.3519L346.641 65.9081C347.252 65.9081 347.863 65.9081 348.474 65.9081C348.719 65.9081 348.841 65.9081 349.085 65.9081V68.3519C348.841 68.3519 348.596 68.3519 348.474 68.3519ZM351.529 68.2297L351.285 65.7859C352.018 65.6637 352.874 65.6637 353.607 65.5415L353.973 67.9853C353.24 67.9853 352.385 68.1075 351.529 68.2297ZM343.952 68.1075C343.097 67.9853 342.242 67.8631 341.508 67.7409L341.875 65.2971C342.608 65.4193 343.464 65.5415 344.197 65.6637L343.952 68.1075ZM356.54 67.4965L356.051 65.0527C356.784 64.9305 357.64 64.6861 358.373 64.4418L358.984 66.7634C358.128 67.13 357.395 67.2521 356.54 67.4965ZM339.064 67.2521C338.209 67.0078 337.476 66.8856 336.62 66.6412L337.353 64.1974C338.087 64.4418 338.82 64.6861 339.675 64.8083L339.064 67.2521ZM334.176 65.7859C333.443 65.5415 332.587 65.1749 331.854 64.8083L332.832 62.6089C333.565 62.9755 334.298 63.2199 335.031 63.4642L334.176 65.7859ZM329.654 63.7086C328.921 63.3421 328.188 62.8533 327.455 62.4867L328.677 60.4095C329.288 60.7761 330.021 61.2648 330.754 61.6314L329.654 63.7086ZM325.255 61.0204C325.01 60.7761 324.644 60.6539 324.399 60.4095L325.866 58.4544C326.11 58.6988 326.355 58.821 326.599 59.0654L325.255 61.0204Z" fill="#0F0F0F"/>
<path d="M216.832 50.3257L213.288 44.2162H204.122V21H255.082V44.2162H220.376L216.832 50.3257ZM206.444 41.7724H214.51L216.709 45.4381L218.909 41.7724H252.638V23.4438H206.444V41.7724Z" fill="#0F0F0F"/>
<path d="M214.51 31.5084H204V21H214.51V31.5084ZM206.444 29.0646H212.066V23.4438H206.444V29.0646Z" fill="#0F0F0F"/>
<path d="M244.206 26.8651H218.909V29.3089H244.206V26.8651Z" fill="#0F0F0F"/>
<path d="M244.206 30.7752H218.909V33.219H244.206V30.7752Z" fill="#0F0F0F"/>
<path d="M244.206 34.5631H218.909V37.0069H244.206V34.5631Z" fill="#0F0F0F"/>
<path d="M168.904 64.7131H110V26.1009H168.904V64.7131ZM112.444 62.2693H166.459V28.5447H112.444V62.2693Z" fill="#0F0F0F"/>
<path d="M158.516 35.754H119.166V38.1978H158.516V35.754Z" fill="#0F0F0F"/>
<path d="M127.964 41.2525H119.166V43.6964H127.964V41.2525Z" fill="#0F0F0F"/>
<path d="M139.452 41.2525H130.653V43.6964H139.452V41.2525Z" fill="#0F0F0F"/>
<path d="M150.939 41.2525H142.14V43.6964H150.939V41.2525Z" fill="#0F0F0F"/>
<path d="M123.321 45.2848H119.166V47.7286H123.321V45.2848Z" fill="#0F0F0F"/>
<path d="M144.218 45.2848H125.887V47.7286H144.218V45.2848Z" fill="#0F0F0F"/>
<path d="M126.009 49.3171H119.166V51.7609H126.009V49.3171Z" fill="#0F0F0F"/>
<path d="M137.374 49.3171H128.575V51.7609H137.374V49.3171Z" fill="#0F0F0F"/>
<path d="M150.939 49.3171H140.063V51.7609H150.939V49.3171Z" fill="#0F0F0F"/>
<path d="M139.574 53.4716H119.166V55.9154H139.574V53.4716Z" fill="#0F0F0F"/>
<path d="M50.1871 147.396L49.3383 144.098C48.1948 139.654 46.7477 138.207 42.2993 137.057L39 136.205L42.2993 135.353C46.7473 134.205 48.1948 132.757 49.3383 128.308L50.1888 125L51.0419 128.307C52.1893 132.755 53.6377 134.204 58.0857 135.353L61.3851 136.206L58.0857 137.057C53.6428 138.204 52.1944 139.652 51.0415 144.099L50.1871 147.396ZM45.3543 136.205C46.4602 136.618 47.4645 137.264 48.2992 138.099C49.1339 138.934 49.7795 139.938 50.1923 141.044C50.6059 139.938 51.2518 138.934 52.0866 138.099C52.9213 137.264 53.9255 136.619 55.0312 136.205C53.9252 135.792 52.9207 135.147 52.0857 134.312C51.2508 133.477 50.6048 132.473 50.1914 131.366C49.779 132.473 49.1336 133.477 48.299 134.312C47.4644 135.147 46.4602 135.793 45.3543 136.205Z" fill="#0F0F0F" stroke="#0F0F0F" stroke-width="0.7"/>
</svg>
